<svg width="179" height="59" viewBox="0 0 179 59" fill="none" xmlns="http://www.w3.org/2000/svg">
<g filter="url(#filter0_d_376_71)">
<mask id="path-1-inside-1_376_71" fill="white">
<path fill-rule="evenodd" clip-rule="evenodd" d="M57 0.0581017L0 28.0291L57 56V42.4502L176 42.4502V13.5752L57 13.5752V0.0581017Z"/>
</mask>
<path fill-rule="evenodd" clip-rule="evenodd" d="M57 0.0581017L0 28.0291L57 56V42.4502L176 42.4502V13.5752L57 13.5752V0.0581017Z" fill="white"/>
<path d="M0 28.0291L-0.440535 27.1313L-2.26997 28.0291L-0.440535 28.9268L0 28.0291ZM57 0.0581017L58 0.0581017V-1.54653L56.5595 -0.839634L57 0.0581017ZM57 56L56.5595 56.8977L58 57.6046V56L57 56ZM57 42.4502V41.4502H56V42.4502H57ZM176 42.4502V43.4502H177V42.4502H176ZM176 13.5752H177V12.5752H176V13.5752ZM57 13.5752H56V14.5752H57V13.5752ZM0.440535 28.9268L57.4405 0.955837L56.5595 -0.839634L-0.440535 27.1313L0.440535 28.9268ZM57.4405 55.1023L0.440535 27.1313L-0.440535 28.9268L56.5595 56.8977L57.4405 55.1023ZM56 42.4502V56L58 56V42.4502H56ZM176 41.4502L57 41.4502V43.4502L176 43.4502V41.4502ZM175 13.5752V42.4502H177V13.5752H175ZM57 14.5752L176 14.5752V12.5752L57 12.5752V14.5752ZM56 0.0581017V13.5752L58 13.5752V0.0581017L56 0.0581017Z" fill="#6018F2" mask="url(#path-1-inside-1_376_71)"/>
</g>
<defs>
<filter id="filter0_d_376_71" x="0" y="0.0581055" width="179" height="58.9419" filterUnits="userSpaceOnUse" color-interpolation-filters="sRGB">
<feFlood flood-opacity="0" result="BackgroundImageFix"/>
<feColorMatrix in="SourceAlpha" type="matrix" values="0 0 0 0 0 0 0 0 0 0 0 0 0 0 0 0 0 0 127 0" result="hardAlpha"/>
<feOffset dx="2" dy="2"/>
<feGaussianBlur stdDeviation="0.5"/>
<feComposite in2="hardAlpha" operator="out"/>
<feColorMatrix type="matrix" values="0 0 0 0 0 0 0 0 0 0 0 0 0 0 0 0 0 0 0.25 0"/>
<feBlend mode="normal" in2="BackgroundImageFix" result="effect1_dropShadow_376_71"/>
<feBlend mode="normal" in="SourceGraphic" in2="effect1_dropShadow_376_71" result="shape"/>
</filter>
</defs>
</svg>
