<svg width="487" height="123" viewBox="0 0 487 123" fill="none" xmlns="http://www.w3.org/2000/svg">
<g filter="url(#filter0_d_157_1119)">
<mask id="path-1-inside-1_157_1119" fill="white">
<path fill-rule="evenodd" clip-rule="evenodd" d="M378.001 8.10039L346.258 0.388794L314.514 8.10039L278.12 8.29561L259.533 21.8477L236.172 27.8572L222.534 14.1962L176.886 9.4938L134.939 0.388809L92.9908 9.4938L47.343 14.1962L28.7231 32.8483L0.734375 49.1578L14.1548 68.6295L16.9214 88.9147L56.1026 100.095L88.33 114.864L134.939 112.522L181.547 114.864L213.775 100.095L241.238 92.2583L259.533 96.9644L278.12 110.517L314.514 110.712L346.258 118.423L378.001 110.712L414.395 110.517L432.982 96.9644L464.275 88.9147L464.726 73.1534L482.532 59.4061L464.726 45.6587L464.275 29.8974L432.982 21.8477L414.395 8.29561L378.001 8.10039Z"/>
</mask>
<path fill-rule="evenodd" clip-rule="evenodd" d="M378.001 8.10039L346.258 0.388794L314.514 8.10039L278.12 8.29561L259.533 21.8477L236.172 27.8572L222.534 14.1962L176.886 9.4938L134.939 0.388809L92.9908 9.4938L47.343 14.1962L28.7231 32.8483L0.734375 49.1578L14.1548 68.6295L16.9214 88.9147L56.1026 100.095L88.33 114.864L134.939 112.522L181.547 114.864L213.775 100.095L241.238 92.2583L259.533 96.9644L278.12 110.517L314.514 110.712L346.258 118.423L378.001 110.712L414.395 110.517L432.982 96.9644L464.275 88.9147L464.726 73.1534L482.532 59.4061L464.726 45.6587L464.275 29.8974L432.982 21.8477L414.395 8.29561L378.001 8.10039Z" fill="#6018F2"/>
<path d="M346.258 0.388794L346.494 -0.582942L346.258 -0.640292L346.022 -0.582942L346.258 0.388794ZM378.001 8.10039L377.765 9.07212L377.879 9.09975L377.996 9.10037L378.001 8.10039ZM314.514 8.10039L314.52 9.10037L314.637 9.09975L314.75 9.07212L314.514 8.10039ZM278.12 8.29561L278.115 7.29562L277.792 7.29735L277.531 7.48758L278.12 8.29561ZM259.533 21.8477L259.782 22.8162L259.968 22.7685L260.122 22.6557L259.533 21.8477ZM236.172 27.8572L235.464 28.5637L235.868 28.968L236.421 28.8257L236.172 27.8572ZM222.534 14.1962L223.242 13.4897L222.991 13.2379L222.637 13.2015L222.534 14.1962ZM176.886 9.4938L176.674 10.471L176.729 10.4828L176.784 10.4885L176.886 9.4938ZM134.939 0.388809L135.151 -0.588435L134.939 -0.634476L134.727 -0.588435L134.939 0.388809ZM92.9908 9.4938L93.0933 10.4885L93.1486 10.4828L93.203 10.471L92.9908 9.4938ZM47.343 14.1962L47.2405 13.2015L46.8866 13.2379L46.6353 13.4897L47.343 14.1962ZM28.7231 32.8483L29.2266 33.7123L29.339 33.6468L29.4308 33.5548L28.7231 32.8483ZM0.734375 49.1578L0.230901 48.2938L-0.701258 48.837L-0.0890016 49.7253L0.734375 49.1578ZM14.1548 68.6295L15.1456 68.4944L15.1134 68.2582L14.9782 68.062L14.1548 68.6295ZM16.9214 88.9147L15.9306 89.0498L16.0188 89.6971L16.647 89.8763L16.9214 88.9147ZM56.1026 100.095L56.5192 99.1858L56.4501 99.1542L56.377 99.1333L56.1026 100.095ZM88.33 114.864L87.9134 115.773L88.1358 115.875L88.3802 115.863L88.33 114.864ZM134.939 112.522L134.989 111.523L134.939 111.52L134.888 111.523L134.939 112.522ZM181.547 114.864L181.497 115.863L181.741 115.875L181.964 115.773L181.547 114.864ZM213.775 100.095L213.5 99.1333L213.427 99.1542L213.358 99.1858L213.775 100.095ZM241.238 92.2583L241.487 91.2898L241.225 91.2222L240.964 91.2967L241.238 92.2583ZM259.533 96.9644L260.122 96.1564L259.968 96.0436L259.782 95.9959L259.533 96.9644ZM278.12 110.517L277.531 111.325L277.792 111.515L278.115 111.516L278.12 110.517ZM314.514 110.712L314.75 109.74L314.637 109.712L314.52 109.712L314.514 110.712ZM346.258 118.423L346.022 119.395L346.258 119.452L346.494 119.395L346.258 118.423ZM378.001 110.712L377.996 109.712L377.879 109.712L377.765 109.74L378.001 110.712ZM414.395 110.517L414.4 111.516L414.723 111.515L414.984 111.325L414.395 110.517ZM432.982 96.9644L432.733 95.9959L432.548 96.0436L432.393 96.1564L432.982 96.9644ZM464.275 88.9147L464.524 89.8832L465.253 89.6956L465.274 88.9433L464.275 88.9147ZM464.726 73.1534L464.115 72.3618L463.74 72.6513L463.726 73.1248L464.726 73.1534ZM482.532 59.4061L483.143 60.1976L484.169 59.4061L483.143 58.6145L482.532 59.4061ZM464.726 45.6587L463.726 45.6873L463.74 46.1608L464.115 46.4503L464.726 45.6587ZM464.275 29.8974L465.274 29.8688L465.253 29.1165L464.524 28.929L464.275 29.8974ZM432.982 21.8477L432.393 22.6557L432.548 22.7685L432.733 22.8162L432.982 21.8477ZM414.395 8.29561L414.984 7.48758L414.723 7.29735L414.4 7.29562L414.395 8.29561ZM346.022 1.36053L377.765 9.07212L378.237 7.12865L346.494 -0.582942L346.022 1.36053ZM314.75 9.07212L346.494 1.36053L346.022 -0.582942L314.278 7.12865L314.75 9.07212ZM278.126 9.29559L314.52 9.10037L314.509 7.1004L278.115 7.29562L278.126 9.29559ZM260.122 22.6557L278.709 9.10364L277.531 7.48758L258.944 21.0397L260.122 22.6557ZM236.421 28.8257L259.782 22.8162L259.284 20.8792L235.923 26.8887L236.421 28.8257ZM221.827 14.9027L235.464 28.5637L236.879 27.1507L223.242 13.4897L221.827 14.9027ZM176.784 10.4885L222.432 15.191L222.637 13.2015L176.989 8.49906L176.784 10.4885ZM134.727 1.36605L176.674 10.471L177.099 8.51655L135.151 -0.588435L134.727 1.36605ZM93.203 10.471L135.151 1.36605L134.727 -0.588435L92.7787 8.51655L93.203 10.471ZM47.4455 15.191L93.0933 10.4885L92.8884 8.49906L47.2405 13.2015L47.4455 15.191ZM29.4308 33.5548L48.0507 14.9027L46.6353 13.4897L28.0154 32.1418L29.4308 33.5548ZM1.23785 50.0218L29.2266 33.7123L28.2196 31.9843L0.230901 48.2938L1.23785 50.0218ZM14.9782 68.062L1.55775 48.5903L-0.0890016 49.7253L13.3314 69.197L14.9782 68.062ZM17.9122 88.7796L15.1456 68.4944L13.164 68.7646L15.9306 89.0498L17.9122 88.7796ZM56.377 99.1333L17.1958 87.9531L16.647 89.8763L55.8282 101.057L56.377 99.1333ZM88.7466 113.955L56.5192 99.1858L55.686 101.004L87.9134 115.773L88.7466 113.955ZM134.888 111.523L88.2798 113.865L88.3802 115.863L134.989 113.52L134.888 111.523ZM181.597 113.865L134.989 111.523L134.888 113.52L181.497 115.863L181.597 113.865ZM213.358 99.1858L181.131 113.955L181.964 115.773L214.191 101.004L213.358 99.1858ZM240.964 91.2967L213.5 99.1333L214.049 101.057L241.513 93.2199L240.964 91.2967ZM259.782 95.9959L241.487 91.2898L240.989 93.2267L259.284 97.9329L259.782 95.9959ZM278.709 109.708L260.122 96.1564L258.944 97.7724L277.531 111.325L278.709 109.708ZM314.52 109.712L278.126 109.517L278.115 111.516L314.509 111.712L314.52 109.712ZM346.494 117.452L314.75 109.74L314.278 111.683L346.022 119.395L346.494 117.452ZM377.765 109.74L346.022 117.452L346.494 119.395L378.237 111.683L377.765 109.74ZM414.39 109.517L377.996 109.712L378.006 111.712L414.4 111.516L414.39 109.517ZM432.393 96.1564L413.806 109.708L414.984 111.325L433.571 97.7724L432.393 96.1564ZM464.026 87.9462L432.733 95.9959L433.231 97.9329L464.524 89.8832L464.026 87.9462ZM463.726 73.1248L463.275 88.8861L465.274 88.9433L465.725 73.182L463.726 73.1248ZM481.921 58.6145L464.115 72.3618L465.337 73.9449L483.143 60.1976L481.921 58.6145ZM464.115 46.4503L481.921 60.1976L483.143 58.6145L465.337 44.8672L464.115 46.4503ZM463.275 29.926L463.726 45.6873L465.725 45.6302L465.274 29.8688L463.275 29.926ZM432.733 22.8162L464.026 30.8659L464.524 28.929L433.231 20.8792L432.733 22.8162ZM413.806 9.10364L432.393 22.6557L433.571 21.0397L414.984 7.48758L413.806 9.10364ZM377.996 9.10037L414.39 9.29559L414.4 7.29562L378.006 7.1004L377.996 9.10037Z" fill="black" mask="url(#path-1-inside-1_157_1119)"/>
</g>
<defs>
<filter id="filter0_d_157_1119" x="0.734375" y="0.388794" width="485.797" height="122.035" filterUnits="userSpaceOnUse" color-interpolation-filters="sRGB">
<feFlood flood-opacity="0" result="BackgroundImageFix"/>
<feColorMatrix in="SourceAlpha" type="matrix" values="0 0 0 0 0 0 0 0 0 0 0 0 0 0 0 0 0 0 127 0" result="hardAlpha"/>
<feOffset dx="4" dy="4"/>
<feComposite in2="hardAlpha" operator="out"/>
<feColorMatrix type="matrix" values="0 0 0 0 0 0 0 0 0 0 0 0 0 0 0 0 0 0 1 0"/>
<feBlend mode="normal" in2="BackgroundImageFix" result="effect1_dropShadow_157_1119"/>
<feBlend mode="normal" in="SourceGraphic" in2="effect1_dropShadow_157_1119" result="shape"/>
</filter>
</defs>
</svg>
