<svg width="374" height="688" viewBox="0 0 374 688" fill="none" xmlns="http://www.w3.org/2000/svg">
<g clip-path="url(#clip0_77_1364)">
<path fill-rule="evenodd" clip-rule="evenodd" d="M165.789 12.8562C201.973 21.7107 302.843 12.9309 328.477 55.2208C351.953 93.9485 311.351 116.996 328.477 163.641C348.78 218.934 378.566 315.803 372.701 379.426C366.823 443.19 332.823 475.911 308.988 527.552C281.937 586.162 342.732 614.371 302.294 647.02C264.414 677.604 81.9154 707.916 46.3535 670.744C18.0257 641.135 68.0306 540.483 47.802 496.804C29.0712 456.358 2.69059 420.205 0.147357 369.818C-2.36197 320.103 27.9177 282.912 34.5474 234.201C43.8073 166.162 16.5552 80.573 46.3535 30.3169C74.6109 -17.34 125.447 2.98424 165.789 12.8562Z" fill="#8BF62A"/>
</g>
<defs>
<clipPath id="clip0_77_1364">
<rect width="374" height="688" fill="white"/>
</clipPath>
</defs>
</svg>
