<svg width="664" height="122" viewBox="0 0 664 122" fill="none" xmlns="http://www.w3.org/2000/svg">
<path d="M370.861 28.7866L464.399 7.02017L440.735 32.9635L438.985 34.882L441.569 34.6328L568.105 22.4352L493.092 43.3166L493.371 45.2799L629.61 43.7135L517.205 56.9069L517.253 58.8977L642.224 67.4984L509.189 71.1429L509.038 73.1265L604.689 90.4483L470.496 83.5462L470.022 85.4508L520.875 109.218L407.862 91.974L406.945 91.834L406.737 92.7379L400.379 120.322L332.211 95.0026L331.863 94.8732L331.515 95.0026L263.348 120.322L256.989 92.7379L256.781 91.834L255.864 91.974L142.851 109.218L193.705 85.4508L193.23 83.5462L59.0375 90.4483L154.688 73.1265L154.538 71.1429L21.5024 67.4984L146.473 58.8977L146.521 56.9069L34.1169 43.7135L170.355 45.2799L170.635 43.3166L95.6212 22.4352L222.157 34.6328L224.742 34.882L222.992 32.9635L199.327 7.02017L292.865 28.7866L293.307 28.8893L293.675 28.6252L331.863 1.23069L370.052 28.6252L370.42 28.8893L370.861 28.7866Z" stroke="black" stroke-width="2"/>
</svg>
