<svg width="472" height="138" viewBox="0 0 472 138" fill="none" xmlns="http://www.w3.org/2000/svg">
<g filter="url(#filter0_d_102_4264)">
<path d="M236 0L263.128 29.6215L330.77 5.66277L312.694 35.8253L409.153 21.6719L348.999 47.16L457.596 45.2594L365.765 61.6659L467.724 72.3466L360.094 76.8347L437.784 98.25L332.966 90.0437L372.954 118.491L289.071 99.0089L284.443 129.569L236 102.18L187.557 129.569L182.929 99.0089L99.046 118.491L139.034 90.0437L34.2161 98.25L111.906 76.8347L4.2764 72.3466L106.235 61.6659L14.4038 45.2594L123.001 47.16L62.8473 21.6719L159.306 35.8253L141.23 5.66277L208.872 29.6215L236 0Z" fill="#8BF62A"/>
<path d="M236 0.740312L262.76 29.9592L262.983 30.2034L263.295 30.0929L329.626 6.59825L312.265 35.5682L311.723 36.4731L312.767 36.32L405.368 22.7327L348.804 46.6996L349.008 47.6599L451.341 45.8689L365.677 61.1737L365.713 62.1632L460.874 72.1318L360.073 76.3352L359.961 77.3168L432.615 97.3438L333.005 89.5452L331.204 89.4043L332.676 90.4511L370.602 117.431L289.184 98.5218L288.658 98.3995L288.577 98.934L284.058 128.776L236.246 101.745L236 101.606L235.754 101.745L187.942 128.776L183.423 98.934L183.342 98.3995L182.816 98.5218L101.398 117.431L139.324 90.4511L140.796 89.4043L138.995 89.5452L39.3852 97.3438L112.039 77.3168L111.927 76.3352L11.126 72.1318L106.287 62.1632L106.323 61.1737L20.6585 45.8689L122.992 47.6599L123.196 46.6996L66.6322 22.7327L159.233 36.32L160.277 36.4731L159.735 35.5682L142.374 6.59825L208.705 30.0929L209.017 30.2034L209.24 29.9592L236 0.740312Z" stroke="black"/>
</g>
<defs>
<filter id="filter0_d_102_4264" x="0.277344" y="0" width="471.445" height="137.569" filterUnits="userSpaceOnUse" color-interpolation-filters="sRGB">
<feFlood flood-opacity="0" result="BackgroundImageFix"/>
<feColorMatrix in="SourceAlpha" type="matrix" values="0 0 0 0 0 0 0 0 0 0 0 0 0 0 0 0 0 0 127 0" result="hardAlpha"/>
<feOffset dy="4"/>
<feGaussianBlur stdDeviation="2"/>
<feComposite in2="hardAlpha" operator="out"/>
<feColorMatrix type="matrix" values="0 0 0 0 0 0 0 0 0 0 0 0 0 0 0 0 0 0 0.25 0"/>
<feBlend mode="normal" in2="BackgroundImageFix" result="effect1_dropShadow_102_4264"/>
<feBlend mode="normal" in="SourceGraphic" in2="effect1_dropShadow_102_4264" result="shape"/>
</filter>
</defs>
</svg>
