<svg width="84" height="21" viewBox="0 0 84 21" fill="none" xmlns="http://www.w3.org/2000/svg">
<path d="M61.8188 20.2172L61.8188 14.8447C61.8188 14.5992 61.972 14.3833 62.2084 14.2902L78.5875 6.96391C79.1095 6.76416 80.3859 6.3191 79.7864 4.83602C79.7082 4.64258 79.483 4.64198 78.4931 4.64198L62.4273 4.64198C62.0858 4.64198 61.81 4.37534 61.81 4.04523L61.81 1.37043C61.81 1.04032 62.0858 0.773681 62.4273 0.773681L83.3828 0.773682C83.7242 0.773682 84 1.04032 84 1.37043L84 6.65835C84 6.90382 83.8468 7.11967 83.6104 7.21278L64.2675 14.9458C63.7553 15.1447 62.4273 16.9283 66.7319 16.9283L83.6191 16.9283C83.8512 17.0214 84 17.2372 84 17.4785L84 20.1998C84 20.5299 83.7242 20.7966 83.3828 20.7966L62.4273 20.7966C62.0858 20.7966 61.81 20.5299 61.81 20.1998L61.81 14.9458C61.81 13.5374 62.8688 18.5706 68.5302 18.5706C70.5723 18.5706 63.142 21.1357 62.204 20.7632C61.972 20.6743 61.8188 20.4585 61.8188 20.2172Z" fill="black"/>
<path d="M27.2659 17.0127C27.2411 16.9286 27.2494 16.7365 27.3031 16.5724C28.2525 13.4749 28.7975 8.5404 27.1544 3.85004C27.1544 3.85004 26.6425 0.752485 21.3378 0.412314C21.3378 0.412314 11.8636 -0.564177 7.4547 0.488352C7.4547 0.488352 0.680334 1.90506 0.023951 9.88908C0.023951 9.88908 -0.587022 15.4639 4.36268 18.9657C4.36268 18.9657 6.52586 21.3388 15.162 20.8506C15.162 20.8506 23.5794 20.9667 25.4743 19.3138C25.6188 19.1898 25.8458 19.2338 25.9449 19.3939L26.8324 20.8026C26.8324 20.8026 27.0966 21.1107 27.3072 20.6865C27.559 20.1863 27.9883 19.1457 27.9883 19.1457C27.9883 19.1457 28.1535 18.5695 27.8851 18.2253C27.8851 18.2253 27.3567 17.3368 27.2659 17.0127ZM25.9944 14.1032C25.9944 14.1032 25.3587 16.7365 20.9539 17.0647C20.9539 17.0647 14.2951 17.8851 9.3289 16.8526C4.35855 15.8121 3.07056 11.8101 3.99115 8.58443C4.83743 5.62294 7.19049 3.47385 14.8442 3.64994C14.8442 3.64994 21.9818 3.43784 24.5578 5.21873C26.8077 6.77952 26.9893 11.2898 25.9944 14.1032Z" fill="black"/>
<path d="M59.2048 1.75833C59.2026 1.86609 59.41 20.1162 59.41 20.1162C59.41 20.1162 59.4567 20.7627 59.1101 20.7627C58.7636 20.7627 58.1108 20.7631 57.4444 20.7631C57.4444 20.7631 57.0143 20.7631 57.0143 20.2451C57.0143 11.1751 57.4289 11.671 57.069 1.21952C57.069 1.21952 57.0135 0.644808 57.4289 0.644808L58.7272 0.644808C58.9316 0.644808 59.1138 0.700682 59.1715 1.0519C59.1937 1.20356 59.2093 1.5468 59.2048 1.75833Z" fill="black"/>
<path d="M49.5146 9.98559C49.6385 13.1102 49.3812 16.4433 45.714 17.3189C41.3551 18.3525 36.446 17.4021 36.446 17.4021C31.9686 16.9094 31.8377 11.7375 31.8377 9.57396C31.8377 7.41042 32.5704 0.580314 32.1277 0.580312C30.8987 0.580306 30.3274 0.41316 30.2557 1.09446C29.7488 5.91075 29.9193 13.8519 30.8733 16.9094C31.747 19.7098 34.6776 20.9994 40.4057 20.9994C46.1337 20.9994 49.9968 21.0813 52.2944 19.3051C55.3935 16.9094 54.8165 9.57396 54.8165 9.57396C54.708 1.58145 55.1214 0.741716 54.3261 0.623263C53.4603 0.494299 51.1291 0.55878 49.7011 0.687962C48.6804 0.7803 49.3991 7.07484 49.5146 9.98559Z" fill="black"/>
</svg>
