<svg width="179" height="103" viewBox="0 0 179 103" fill="none" xmlns="http://www.w3.org/2000/svg">
<g filter="url(#filter0_d_181_1237)">
<mask id="path-1-inside-1_181_1237" fill="white">
<path fill-rule="evenodd" clip-rule="evenodd" d="M57 0.313629L0 49.6771L57 99.0405V75.1274L175.999 75.1274V24.1685L57 24.1685V0.313629Z"/>
</mask>
<path fill-rule="evenodd" clip-rule="evenodd" d="M57 0.313629L0 49.6771L57 99.0405V75.1274L175.999 75.1274V24.1685L57 24.1685V0.313629Z" fill="white"/>
<path d="M0 49.6771L-0.654654 48.9212L-1.52753 49.6771L-0.654654 50.433L0 49.6771ZM57 0.313629H58V-1.87527L56.3453 -0.442299L57 0.313629ZM57 99.0405L56.3453 99.7965L58 101.229V99.0405H57ZM57 75.1274V74.1274H56V75.1274H57ZM175.999 75.1274V76.1274H176.999V75.1274H175.999ZM175.999 24.1685H176.999V23.1685H175.999V24.1685ZM57 24.1685H56V25.1685H57V24.1685ZM0.654654 50.433L57.6547 1.06956L56.3453 -0.442299L-0.654654 48.9212L0.654654 50.433ZM57.6547 98.2846L0.654654 48.9212L-0.654654 50.433L56.3453 99.7965L57.6547 98.2846ZM56 75.1274V99.0405H58V75.1274H56ZM175.999 74.1274L57 74.1274V76.1274L175.999 76.1274V74.1274ZM174.999 24.1685V75.1274H176.999V24.1685H174.999ZM57 25.1685L175.999 25.1685V23.1685L57 23.1685V25.1685ZM56 0.313629V24.1685H58V0.313629H56Z" fill="#6018F2" mask="url(#path-1-inside-1_181_1237)"/>
</g>
<defs>
<filter id="filter0_d_181_1237" x="0" y="0.313721" width="179" height="101.727" filterUnits="userSpaceOnUse" color-interpolation-filters="sRGB">
<feFlood flood-opacity="0" result="BackgroundImageFix"/>
<feColorMatrix in="SourceAlpha" type="matrix" values="0 0 0 0 0 0 0 0 0 0 0 0 0 0 0 0 0 0 127 0" result="hardAlpha"/>
<feOffset dx="2" dy="2"/>
<feGaussianBlur stdDeviation="0.5"/>
<feComposite in2="hardAlpha" operator="out"/>
<feColorMatrix type="matrix" values="0 0 0 0 0 0 0 0 0 0 0 0 0 0 0 0 0 0 0.25 0"/>
<feBlend mode="normal" in2="BackgroundImageFix" result="effect1_dropShadow_181_1237"/>
<feBlend mode="normal" in="SourceGraphic" in2="effect1_dropShadow_181_1237" result="shape"/>
</filter>
</defs>
</svg>
