<svg width="345" height="103" viewBox="0 0 345 103" fill="none" xmlns="http://www.w3.org/2000/svg">
<g filter="url(#filter0_d_185_2288)">
<mask id="path-1-inside-1_185_2288" fill="white">
<path fill-rule="evenodd" clip-rule="evenodd" d="M283.856 10.4903L246.014 0.974365L208.171 10.4903L170.248 19.9184L168.105 24.8442L158.031 12.7459L125.569 8.73683L95.7394 0.97443L65.9094 8.73683L33.4482 12.7459L20.2071 28.6476L0.303711 42.5522L9.84728 59.1526L11.8147 76.4467L39.6773 85.9783L62.595 98.5697L95.7394 96.5726L128.884 98.5697L151.802 85.9783L175.353 77.9214L177.824 79.5229L203.967 96.6213L246.014 96.5725L288.06 96.6213L314.203 79.5229L340.492 62.4853L331.044 41.2127L321.779 19.9184L283.856 10.4903Z"/>
</mask>
<path fill-rule="evenodd" clip-rule="evenodd" d="M283.856 10.4903L246.014 0.974365L208.171 10.4903L170.248 19.9184L168.105 24.8442L158.031 12.7459L125.569 8.73683L95.7394 0.97443L65.9094 8.73683L33.4482 12.7459L20.2071 28.6476L0.303711 42.5522L9.84728 59.1526L11.8147 76.4467L39.6773 85.9783L62.595 98.5697L95.7394 96.5726L128.884 98.5697L151.802 85.9783L175.353 77.9214L177.824 79.5229L203.967 96.6213L246.014 96.5725L288.06 96.6213L314.203 79.5229L340.492 62.4853L331.044 41.2127L321.779 19.9184L283.856 10.4903Z" fill="#6018F2"/>
<path d="M246.014 0.974365L246.257 0.00455785L246.014 -0.0567673L245.77 0.00455779L246.014 0.974365ZM283.856 10.4903L283.612 11.4601L283.614 11.4608L283.856 10.4903ZM208.171 10.4903L208.413 11.4608L208.415 11.4601L208.171 10.4903ZM170.248 19.9184L170.007 18.948L169.528 19.067L169.331 19.5195L170.248 19.9184ZM168.105 24.8442L167.336 25.484L168.374 26.7308L169.022 25.2431L168.105 24.8442ZM158.031 12.7459L158.799 12.106L158.546 11.8019L158.153 11.7534L158.031 12.7459ZM125.569 8.73683L125.318 9.7046L125.381 9.72121L125.447 9.72929L125.569 8.73683ZM95.7394 0.97443L95.9913 0.00665951L95.7394 -0.0588731L95.4876 0.00665951L95.7394 0.97443ZM65.9094 8.73683L66.032 9.72929L66.0974 9.72121L66.1612 9.7046L65.9094 8.73683ZM33.4482 12.7459L33.3256 11.7534L32.9329 11.8019L32.6797 12.106L33.4482 12.7459ZM20.2071 28.6476L20.7798 29.4674L20.8898 29.3905L20.9756 29.2875L20.2071 28.6476ZM0.303711 42.5522L-0.268982 41.7324L-1.01959 42.2568L-0.563233 43.0506L0.303711 42.5522ZM9.84728 59.1526L10.8409 59.0396L10.8175 58.8338L10.7142 58.6542L9.84728 59.1526ZM11.8147 76.4467L10.8211 76.5597L10.8926 77.1881L11.491 77.3928L11.8147 76.4467ZM39.6773 85.9783L40.1588 85.1019L40.0829 85.0602L40.001 85.0321L39.6773 85.9783ZM62.595 98.5697L62.1134 99.4461L62.3667 99.5853L62.6551 99.5679L62.595 98.5697ZM95.7394 96.5726L95.7996 95.5744L95.7394 95.5708L95.6793 95.5744L95.7394 96.5726ZM128.884 98.5697L128.824 99.5679L129.112 99.5853L129.365 99.4462L128.884 98.5697ZM151.802 85.9783L151.478 85.0321L151.396 85.0602L151.32 85.1019L151.802 85.9783ZM175.353 77.9214L175.897 77.0822L175.489 76.818L175.03 76.9752L175.353 77.9214ZM177.824 79.5229L178.372 78.686L178.368 78.6837L177.824 79.5229ZM203.967 96.6213L203.419 97.4582L203.669 97.6216L203.968 97.6213L203.967 96.6213ZM246.014 96.5725L246.015 95.5725H246.012L246.014 96.5725ZM288.06 96.6213L288.059 97.6213L288.358 97.6216L288.608 97.4582L288.06 96.6213ZM314.203 79.5229L313.659 78.6837L313.655 78.686L314.203 79.5229ZM340.492 62.4853L341.036 63.3245L341.752 62.86L341.406 62.0794L340.492 62.4853ZM331.044 41.2127L330.127 41.6117L330.13 41.6186L331.044 41.2127ZM321.779 19.9184L322.696 19.5195L322.499 19.067L322.021 18.948L321.779 19.9184ZM245.77 1.94417L283.612 11.4601L284.099 9.5205L246.257 0.00455785L245.77 1.94417ZM208.415 11.4601L246.257 1.94417L245.77 0.00455779L207.928 9.5205L208.415 11.4601ZM170.489 20.8889L208.413 11.4608L207.93 9.51985L170.007 18.948L170.489 20.8889ZM169.022 25.2431L171.165 20.3174L169.331 19.5195L167.188 24.4452L169.022 25.2431ZM157.262 13.3857L167.336 25.484L168.873 24.2043L158.799 12.106L157.262 13.3857ZM125.447 9.72929L157.908 13.7383L158.153 11.7534L125.692 7.74437L125.447 9.72929ZM95.4876 1.9422L125.318 9.7046L125.821 7.76906L95.9913 0.00665951L95.4876 1.9422ZM66.1612 9.7046L95.9913 1.9422L95.4876 0.00665951L65.6576 7.76906L66.1612 9.7046ZM33.5708 13.7383L66.032 9.72929L65.7868 7.74437L33.3256 11.7534L33.5708 13.7383ZM20.9756 29.2875L34.2167 13.3857L32.6797 12.106L19.4387 28.0077L20.9756 29.2875ZM0.876404 43.3719L20.7798 29.4674L19.6345 27.8278L-0.268982 41.7324L0.876404 43.3719ZM10.7142 58.6542L1.17066 42.0538L-0.563233 43.0506L8.98034 59.651L10.7142 58.6542ZM12.8083 76.3336L10.8409 59.0396L8.85369 59.2657L10.8211 76.5597L12.8083 76.3336ZM40.001 85.0321L12.1383 75.5005L11.491 77.3928L39.3536 86.9245L40.001 85.0321ZM63.0765 97.6933L40.1588 85.1019L39.1958 86.8547L62.1134 99.4461L63.0765 97.6933ZM95.6793 95.5744L62.5348 97.5715L62.6551 99.5679L95.7996 97.5708L95.6793 95.5744ZM128.944 97.5715L95.7996 95.5744L95.6793 97.5708L128.824 99.5679L128.944 97.5715ZM151.32 85.1019L128.402 97.6933L129.365 99.4462L152.283 86.8547L151.32 85.1019ZM175.03 76.9752L151.478 85.0321L152.125 86.9245L175.677 78.8676L175.03 76.9752ZM178.368 78.6837L175.897 77.0822L174.809 78.7606L177.281 80.3621L178.368 78.6837ZM204.514 95.7844L178.372 78.686L177.277 80.3598L203.419 97.4582L204.514 95.7844ZM246.012 95.5725L203.966 95.6213L203.968 97.6213L246.015 97.5725L246.012 95.5725ZM288.061 95.6213L246.015 95.5725L246.012 97.5725L288.059 97.6213L288.061 95.6213ZM313.655 78.686L287.513 95.7844L288.608 97.4582L314.75 80.3598L313.655 78.686ZM339.948 61.6461L313.659 78.6837L314.746 80.3621L341.036 63.3245L339.948 61.6461ZM330.13 41.6186L339.578 62.8912L341.406 62.0794L331.958 40.8068L330.13 41.6186ZM320.862 20.3174L330.127 41.6117L331.961 40.8137L322.696 19.5195L320.862 20.3174ZM283.614 11.4608L321.538 20.8889L322.021 18.948L284.097 9.51985L283.614 11.4608Z" fill="black" mask="url(#path-1-inside-1_185_2288)"/>
</g>
<defs>
<filter id="filter0_d_185_2288" x="0.303711" y="0.974365" width="344.188" height="101.595" filterUnits="userSpaceOnUse" color-interpolation-filters="sRGB">
<feFlood flood-opacity="0" result="BackgroundImageFix"/>
<feColorMatrix in="SourceAlpha" type="matrix" values="0 0 0 0 0 0 0 0 0 0 0 0 0 0 0 0 0 0 127 0" result="hardAlpha"/>
<feOffset dx="4" dy="4"/>
<feComposite in2="hardAlpha" operator="out"/>
<feColorMatrix type="matrix" values="0 0 0 0 0 0 0 0 0 0 0 0 0 0 0 0 0 0 1 0"/>
<feBlend mode="normal" in2="BackgroundImageFix" result="effect1_dropShadow_185_2288"/>
<feBlend mode="normal" in="SourceGraphic" in2="effect1_dropShadow_185_2288" result="shape"/>
</filter>
</defs>
</svg>
