<svg width="447" height="749" viewBox="0 0 447 749" fill="none" xmlns="http://www.w3.org/2000/svg">
<path d="M104.801 722.059C80.0526 697.255 51.3316 675.213 62.2721 637.922C67.1369 621.341 76.6748 607.142 82.6224 591.058C87.9608 576.621 83.3614 567.083 71.4115 558.034C49.1021 541.141 28.7779 526.754 18.2814 499.514C1.46966 455.886 3.55953 412.232 14.3819 367.541C21.0028 340.2 33.2934 315.175 39.4847 287.653C43.5491 269.586 44.2727 251.77 42.8967 233.261C41.2045 210.5 31.8095 191.787 26.324 170.128C23.9784 160.867 20.8624 147.193 22.7901 137.59C24.0182 131.473 30.3568 126.475 21.206 131.034C18.6302 132.317 2.96331 140.912 2.07429 133.826C0.975433 125.068 12.3255 117.003 19.0125 113.672C24.6157 110.881 32.786 114.936 37.7787 112.094C42.1914 109.582 46.0578 86.2469 48.8677 81.0129C54.2724 70.9457 61.0051 62.4941 68.7306 54.1812C81.4001 40.5484 95.4731 -7.15697 122.836 3.55308C134.752 8.21733 135.08 27.639 144.77 35.3626C148.482 38.3214 152.44 30.8452 154.519 29.2921C165.783 20.8751 191.615 10.5257 201.556 11.809C246.482 17.6087 291.407 23.4793 336.331 29.2921C348.376 30.8506 359.248 56.5429 367.526 65.1081C370.562 68.2494 363.03 79.0162 359.165 81.6052C363.229 83.7868 371.68 89.9497 371.182 90.8471C364.142 103.539 357.18 117.23 351.685 130.67C346.995 142.139 343.173 150.497 349.248 162.601C353.775 171.622 357.573 177.261 360.459 187.975C366.207 209.321 375.22 229.764 374.594 252.201C374.202 266.276 361.673 280.406 357.047 293.724C353.87 302.866 351.75 309.608 346.079 316.67C342.815 320.735 380.665 345.674 385.439 349.451C406.913 366.441 432.785 390.066 442.103 416.591C454.204 451.037 426.021 460.584 401.403 476.811C385.041 487.595 362.956 496.423 344.373 503.035C336.091 505.982 339.996 517.118 341.449 523.675C346.296 545.548 351.257 569.586 360.946 589.965C368.296 605.425 385.65 612.607 387.511 631.609C391.293 670.228 346.497 692.636 315.737 703.362C310.479 705.195 307.598 708.285 302.942 711.254C292.325 718.023 277.665 722.618 265.166 724.002C245.261 726.205 227.909 732.323 208.989 739.542C190.937 746.431 168.086 748.778 148.669 745.613C133.805 743.19 119.627 731.621 104.801 730.801C85.8331 729.751 95.6842 726.601 104.801 722.059Z" fill="#8BF62A"/>
<path d="M104.801 722.059C80.0526 697.255 51.3316 675.213 62.2721 637.922C67.1369 621.341 76.6748 607.142 82.6224 591.058C87.9608 576.621 83.3614 567.083 71.4115 558.034C49.1021 541.141 28.7779 526.754 18.2814 499.514C1.46966 455.886 3.55953 412.232 14.3819 367.541C21.0028 340.2 33.2934 315.175 39.4847 287.653C43.5491 269.586 44.2727 251.77 42.8967 233.261C41.2045 210.5 31.8095 191.787 26.324 170.128C23.9784 160.867 20.8624 147.193 22.7901 137.59C24.0182 131.473 30.3568 126.475 21.206 131.034C18.6302 132.317 2.96331 140.912 2.07429 133.826C0.975433 125.068 12.3255 117.003 19.0125 113.672C24.6157 110.881 32.786 114.936 37.7787 112.094C42.1914 109.582 46.0578 86.2469 48.8677 81.0129C54.2724 70.9457 61.0051 62.4941 68.7306 54.1812C81.4001 40.5484 95.4731 -7.15697 122.836 3.55308C134.752 8.21733 135.08 27.639 144.77 35.3626C148.482 38.3215 152.44 30.8452 154.519 29.2921C165.783 20.8751 191.615 10.5257 201.556 11.809C246.483 17.6087 291.407 23.4793 336.331 29.2921C348.376 30.8506 359.248 56.5429 367.526 65.1081C371.545 69.2662 357.047 86.7854 357.047 81.0129C357.047 79.4022 371.836 89.6681 371.182 90.8471C364.142 103.539 357.18 117.23 351.685 130.67C346.995 142.139 343.173 150.497 349.248 162.601C353.775 171.622 357.573 177.261 360.459 187.975C366.207 209.321 375.22 229.764 374.594 252.201C374.202 266.276 361.673 280.406 357.047 293.724C353.87 302.866 351.75 309.608 346.079 316.67C342.815 320.735 380.665 345.674 385.439 349.451C406.913 366.441 432.785 390.066 442.103 416.591C454.204 451.037 426.021 460.584 401.403 476.811C385.041 487.595 362.956 496.423 344.373 503.035C336.091 505.982 339.996 517.118 341.449 523.675C346.296 545.548 351.257 569.586 360.946 589.965C368.296 605.425 385.65 612.607 387.511 631.609C391.293 670.228 346.497 692.636 315.737 703.362C310.479 705.195 307.598 708.285 302.942 711.254C292.325 718.023 277.665 722.618 265.166 724.002C245.261 726.205 227.909 732.323 208.989 739.542C190.937 746.431 168.086 748.778 148.669 745.613C133.805 743.19 119.627 731.621 104.801 730.801C85.8331 729.751 95.6842 726.601 104.801 722.059Z" stroke="#8BF62A" stroke-width="3" stroke-linecap="round"/>
</svg>
