<svg width="472" height="209" viewBox="0 0 472 209" fill="none" xmlns="http://www.w3.org/2000/svg">
<g filter="url(#filter0_d_170_2138)">
<path d="M236 0.982733L262.698 46.1565L262.944 46.5735L263.369 46.3404L329.809 9.87272L312.228 55.3351L311.889 56.2113L312.805 56.003L406.565 34.6845L348.725 72.662L347.254 73.6275L349.013 73.5798L453.516 70.7456L365.632 95.0767L365.685 96.0521L463.284 111.895L360.062 118.566L359.897 119.524L434.359 151.331L333.026 139.037L331.694 138.875L332.595 139.869L371.236 182.466L289.24 152.955L288.636 152.738L288.573 153.377L284.04 199.764L236.329 157.964L236 157.675L235.671 157.964L187.96 199.764L183.427 153.377L183.364 152.738L182.76 152.955L100.764 182.466L139.405 139.869L140.306 138.875L138.974 139.037L37.6407 151.331L112.103 119.524L111.938 118.566L8.7161 111.895L106.315 96.0521L106.368 95.0767L18.4841 70.7456L122.987 73.5798L124.746 73.6275L123.275 72.662L65.4355 34.6845L159.195 56.003L160.111 56.2113L159.772 55.3351L142.191 9.87273L208.631 46.3404L209.056 46.5735L209.302 46.1565L236 0.982733Z" stroke="black" shape-rendering="crispEdges"/>
</g>
<defs>
<filter id="filter0_d_170_2138" x="0.277344" y="0" width="471.445" height="208.782" filterUnits="userSpaceOnUse" color-interpolation-filters="sRGB">
<feFlood flood-opacity="0" result="BackgroundImageFix"/>
<feColorMatrix in="SourceAlpha" type="matrix" values="0 0 0 0 0 0 0 0 0 0 0 0 0 0 0 0 0 0 127 0" result="hardAlpha"/>
<feOffset dy="4"/>
<feGaussianBlur stdDeviation="2"/>
<feComposite in2="hardAlpha" operator="out"/>
<feColorMatrix type="matrix" values="0 0 0 0 0 0 0 0 0 0 0 0 0 0 0 0 0 0 0.25 0"/>
<feBlend mode="normal" in2="BackgroundImageFix" result="effect1_dropShadow_170_2138"/>
<feBlend mode="normal" in="SourceGraphic" in2="effect1_dropShadow_170_2138" result="shape"/>
</filter>
</defs>
</svg>
