<svg width="100%" height="100%" preserveAspectRatio="none" viewBox="0 0 1240 656" fill="none" xmlns="http://www.w3.org/2000/svg">
<path className="path1" d="M360.5 1H1V183H224.5L360.5 203.5L331.5 80.5L360.5 1Z" fill="#8BF62A" stroke="black" stroke-opacity="0.5"/>
<path className="path2" d="M763 655H1238.5V283.5L1179.5 171L935 303L448 367.5L763 655Z" fill="#8BF62A" stroke="black" stroke-opacity="0.5"/>
<path className="path3" d="M361 655L429 436.5L442.5 353L777.5 655H361Z" fill="#8BF62A" stroke="black" stroke-opacity="0.5"/>
<path className="path4" d="M1 409V171H235L365.5 214L547.5 195.5L413 332L1 409Z" fill="#8BF62A" stroke="black" stroke-opacity="0.5"/>
<path className="path5" d="M1 654.5V408L421.5 325L450 298L487.5 346L473 437L373.5 654.5H1Z" fill="#8BF62A" stroke="black" stroke-opacity="0.5"/>
<path className="path6" d="M1239.54 1H843L1072.5 118L1239.54 64.5V1Z" stroke="black" stroke-opacity="0.5" fill="#8BF62A"/>
<path className="path7" d="M1119 24L941 179.5L1022 269.5L1004.5 333L1182.5 223.5L1239 333V24H1119Z" fill="#8BF62A" stroke="black" stroke-opacity="0.5"/>
<path className="path8" d="M352.5 1L287 73.5L317.5 224L526 207.5L390.5 353L504 417.5L973.5 327.5L1065 265.5L973.5 158L1077.5 73.5L839 1H352.5Z" fill="#8BF62A" stroke="black" stroke-opacity="0.5"/>
</svg>
