<svg width="1306" height="698" viewBox="0 0 1306 698" preserveAspectRatio="none"  fill="none" xmlns="http://www.w3.org/2000/svg">
<path className="path1 path" d="M389.07 24.5H23.8994V205.387H250.925L389.07 225.761L359.612 103.514L389.07 24.5Z" fill="#8BF62A" />
<path className="path2 path" d="M797.917 674.5H1280.92V305.272L1220.99 193.46L972.63 324.653L477.949 388.759L797.917 674.5Z" fill="#8BF62A" />
<path className="path3 path" d="M389.577 674.5L458.65 457.336L472.362 374.347L812.646 674.5H389.577Z" fill="#8BF62A" />
<path className="path4 path" d="M23.8994 430.005V193.46H261.591L394.149 236.197L579.02 217.811L442.398 353.476L23.8994 430.005Z" fill="#8BF62A" />
<path className="path5 path" d="M23.8994 674.003V429.011L451.032 346.518L479.981 319.684L518.073 367.39L503.344 457.833L402.275 674.003H23.8994Z" fill="#8BF62A" />
<path className="path6 path" d="M1281.97 24.5H879.178L1112.3 140.784L1281.97 87.6116V24.5Z" fill="#8BF62A" />
<path className="path7 path" d="M1159.53 47.3594L978.726 201.908L1061 291.358L1043.23 354.469L1224.03 245.639L1281.43 354.469V47.3594H1159.53Z" fill="#8BF62A" />
<path className="path8 path" d="M380.942 24.5L314.409 96.5566L345.39 246.136L557.179 229.737L419.542 374.347L534.832 438.453L1011.74 349.003L1104.68 287.382L1011.74 180.54L1117.38 96.5566L875.115 24.5H380.942Z" fill="#8BF62A" />
</svg>
