<svg width="12" height="13" viewBox="0 0 12 13" fill="none" xmlns="http://www.w3.org/2000/svg">
<path d="M5.484 12.8519C5.244 12.8519 5.124 12.7319 5.124 12.4919L5.16 8.09991C5.16 7.95591 5.1 7.91991 4.98 7.99191L0.984 10.2959C0.936 10.3199 0.876 10.3319 0.804 10.3319C0.66 10.3319 0.552 10.2719 0.48 10.1519L0.048 9.28791C0.024 9.23991 0.012 9.17991 0.012 9.10791C0.012 8.96391 0.072 8.85591 0.192 8.78391L4.152 6.58791C4.2 6.56391 4.224 6.52791 4.224 6.47991C4.224 6.43191 4.2 6.39591 4.152 6.37191L0.192 4.17591C0.096 4.12791 0.036 4.05591 0.012 3.95991C-0.012 3.86391 2.98023e-08 3.76791 0.048 3.67191L0.48 2.80791C0.528 2.71191 0.6 2.65191 0.696 2.62791C0.792 2.60391 0.888 2.61591 0.984 2.66391L4.98 4.96791C5.1 5.01591 5.16 4.97991 5.16 4.85991L5.124 0.46791C5.124 0.22791 5.244 0.10791 5.484 0.10791H6.456C6.696 0.10791 6.816 0.22791 6.816 0.46791L6.78 4.85991C6.78 4.97991 6.84 5.01591 6.96 4.96791L10.956 2.66391C11.004 2.63991 11.064 2.62791 11.136 2.62791C11.28 2.62791 11.388 2.68791 11.46 2.80791L11.892 3.67191C11.916 3.71991 11.928 3.77991 11.928 3.85191C11.928 3.99591 11.868 4.10391 11.748 4.17591L7.752 6.37191C7.728 6.39591 7.716 6.43191 7.716 6.47991C7.716 6.52791 7.728 6.56391 7.752 6.58791L11.748 8.78391C11.844 8.83191 11.904 8.90391 11.928 8.99991C11.952 9.09591 11.94 9.19191 11.892 9.28791L11.46 10.1519C11.412 10.2479 11.34 10.3079 11.244 10.3319C11.148 10.3559 11.052 10.3439 10.956 10.2959L6.96 7.99191C6.84 7.91991 6.78 7.95591 6.78 8.09991L6.816 12.4919C6.816 12.7319 6.696 12.8519 6.456 12.8519H5.484Z" fill="black"/>
</svg>
